<svg width="18" height="18" viewBox="0 0 18 18" fill="none"
    xmlns="http://www.w3.org/2000/svg">
    <path fill-rule="evenodd" clip-rule="evenodd" d="M9 17.25C8.58579 17.25 8.25 16.9142 8.25 16.5L8.25 9.75L1.5 9.75C1.08579 9.75 0.750001 9.41421 0.750001 9C0.750001 8.58579 1.08579 8.25 1.5 8.25L8.25 8.25L8.25 1.5C8.25 1.08579 8.58579 0.749999 9 0.749999C9.41422 0.749999 9.75 1.08579 9.75 1.5L9.75 8.25L16.5 8.25C16.9142 8.25 17.25 8.58579 17.25 9C17.25 9.41421 16.9142 9.75 16.5 9.75L9.75 9.75L9.75 16.5C9.75 16.9142 9.41421 17.25 9 17.25Z" fill="#2F3E48"/>
</svg>